<svg id="b773b6b4-51f6-4da9-9d0a-32314f5b0ab5" data-name="Layer 1" xmlns="http://www.w3.org/2000/svg" width="569.75" height="230.5" viewBox="0 0 569.75 230.5">
  <defs>
    <style>
      .af99591b-31ad-4ed3-a4d6-8556fabe690e {
        fill: #62b846;
      }

      .fe01ab5c-8449-4c4a-8d35-f35d31c1e5c2 {
        fill: #fff;
      }
    </style>
  </defs>
  <title>admin_logo_sonocent</title>
  <circle class="af99591b-31ad-4ed3-a4d6-8556fabe690e" cx="87.32" cy="115.25" r="67.5" transform="translate(-52.12 153.52) rotate(-68.2)"/>
  <g>
    <path class="fe01ab5c-8449-4c4a-8d35-f35d31c1e5c2" d="M97,101.75A16,16,0,0,0,74,116.14a16.07,16.07,0,0,0,2.46,8.54l-8.76,18.18,0,.07a9.64,9.64,0,0,0-.74,3.56,6,6,0,0,0,.6,2.72,5,5,0,0,0,.76,1.12L65,157.19a5.86,5.86,0,0,0-.84,2.92,4.37,4.37,0,0,0,.62,2.26,4.89,4.89,0,0,0,2.09,1.81,5.43,5.43,0,0,0,2.36.58h0a4.6,4.6,0,0,0,3.4-1.55,5.72,5.72,0,0,0,.94-1.38h0l3.48-7.23a5.29,5.29,0,0,0,3-.95,8.39,8.39,0,0,0,2.77-3.42l7.42-15.4a2,2,0,0,0-3.66-1.76l-7.42,15.39a4.47,4.47,0,0,1-1.38,1.83,1.32,1.32,0,0,1-.75.26,1.42,1.42,0,0,1-.28,0h0a2,2,0,0,0-2.64,1l-4.14,8.59,0,.05h0a1.8,1.8,0,0,1-.3.4c-.17.14-.22.17-.37.17a1.33,1.33,0,0,1-.6-.17c-.33-.16-.37-.26-.39-.28s0,0,0-.13a1.91,1.91,0,0,1,.15-.61,1.76,1.76,0,0,1,.12-.24l0,0h0l.12-.21,4-8.39a2,2,0,0,0,.09-1.55,2,2,0,0,0-1-1.16,1.05,1.05,0,0,1-.56-.51,2,2,0,0,1-.17-.9,5.45,5.45,0,0,1,.21-1.37c.06-.2.11-.36.15-.46l0-.09,9.25-19.19a2,2,0,0,0-.2-2.09,12,12,0,0,1-2.37-7.15,11.94,11.94,0,1,1,15.54,11.39l-6.73-3.24A2,2,0,1,0,85.14,128l7.42,3.57a2,2,0,0,0,1.38.14,16,16,0,0,0,3-29.91Zm3.47-23.6-3.69-.85-4,17.43,3.7.85ZM77.71,98.43l-12-13.23-2.81,2.55,12,13.23Z"/>
    <path class="fe01ab5c-8449-4c4a-8d35-f35d31c1e5c2" d="M124.21,77.77l-2.9-2.45-19.4,23,2.9,2.45ZM86.27,94.9,79,65.74l-3.68.92,7.27,29.16Z"/>
  </g>
  <g>
    <path class="fe01ab5c-8449-4c4a-8d35-f35d31c1e5c2" d="M223.52,133.09h-5.71V110H192v23.08h-5.7v-49H192v20.87h25.83V84.05h5.71Z"/>
    <path class="fe01ab5c-8449-4c4a-8d35-f35d31c1e5c2" d="M251.66,133.76q-8.15,0-12.86-5T234.08,115q0-8.88,4.38-14.12a14.54,14.54,0,0,1,11.76-5.23q6.9,0,10.93,4.54t4,12v3.52H239.85q.17,6.47,3.27,9.83t8.74,3.35a29.69,29.69,0,0,0,11.74-2.48v5a29.67,29.67,0,0,1-5.58,1.83A31.42,31.42,0,0,1,251.66,133.76Zm-1.51-33.44a9.07,9.07,0,0,0-7.06,2.89,13.23,13.23,0,0,0-3.1,8h19.22c0-3.51-.79-6.2-2.35-8.07A8.26,8.26,0,0,0,250.15,100.32Z"/>
    <path class="fe01ab5c-8449-4c4a-8d35-f35d31c1e5c2" d="M280.24,133.09h-5.57V80.9h5.57Z"/>
    <path class="fe01ab5c-8449-4c4a-8d35-f35d31c1e5c2" d="M309.15,133.76a15.94,15.94,0,0,1-6.55-1.32,12.25,12.25,0,0,1-5-4.08h-.41a49.22,49.22,0,0,1,.41,6.11V149.6h-5.57V96.33h4.53l.77,5h.27a12.89,12.89,0,0,1,5-4.36,15.25,15.25,0,0,1,6.54-1.34q7.32,0,11.29,5t4,14q0,9.06-4,14.07T309.15,133.76Zm-.8-33.37c-3.76,0-6.47,1-8.15,3.12s-2.54,5.39-2.58,9.93v1.24q0,7.74,2.58,11.08t8.28,3.34a8.6,8.6,0,0,0,7.47-3.86q2.7-3.85,2.7-10.63T316,104.06A8.89,8.89,0,0,0,308.35,100.39Z"/>
    <path class="fe01ab5c-8449-4c4a-8d35-f35d31c1e5c2" d="M373.83,88.45q-8.08,0-12.77,5.38t-4.67,14.74q0,9.63,4.51,14.88t12.86,5.25a44,44,0,0,0,11.71-1.85v5a35.93,35.93,0,0,1-12.58,1.91q-10.83,0-16.72-6.57t-5.89-18.68a29.49,29.49,0,0,1,2.83-13.29,20.37,20.37,0,0,1,8.19-8.79,24.84,24.84,0,0,1,12.6-3.08,30.51,30.51,0,0,1,13.48,2.81L385,91.06A26.09,26.09,0,0,0,373.83,88.45Z"/>
    <path class="fe01ab5c-8449-4c4a-8d35-f35d31c1e5c2" d="M410.86,133.76q-8.14,0-12.86-5T393.28,115q0-8.88,4.38-14.12a14.54,14.54,0,0,1,11.76-5.23q6.91,0,10.93,4.54t4,12v3.52H399.05q.18,6.47,3.27,9.83t8.74,3.35a29.69,29.69,0,0,0,11.74-2.48v5a29.44,29.44,0,0,1-5.58,1.83A31.42,31.42,0,0,1,410.86,133.76Zm-1.51-33.44a9.08,9.08,0,0,0-7.06,2.89,13.23,13.23,0,0,0-3.1,8h19.22q0-5.26-2.35-8.07A8.25,8.25,0,0,0,409.35,100.32Z"/>
    <path class="fe01ab5c-8449-4c4a-8d35-f35d31c1e5c2" d="M459,133.09V109.31c0-3-.68-5.23-2-6.71s-3.5-2.21-6.4-2.21q-5.77,0-8.46,3.12t-2.68,10.3v19.28h-5.57V96.33h4.53l.91,5h.27a11.37,11.37,0,0,1,4.79-4.21,15.67,15.67,0,0,1,6.88-1.49q6.64,0,10,3.2t3.35,10.25v24Z"/>
    <path class="fe01ab5c-8449-4c4a-8d35-f35d31c1e5c2" d="M487.91,129.17a17.52,17.52,0,0,0,2.85-.22,18.35,18.35,0,0,0,2.18-.45v4.26a10.15,10.15,0,0,1-2.66.72,20,20,0,0,1-3.17.28q-10.67,0-10.67-11.23V100.66h-5.27V98l5.27-2.31,2.35-7.85H482v8.52h10.67v4.33H482v21.63a7.38,7.38,0,0,0,1.58,5.1A5.46,5.46,0,0,0,487.91,129.17Z"/>
    <path class="fe01ab5c-8449-4c4a-8d35-f35d31c1e5c2" d="M515.82,133.76q-8.15,0-12.86-5T498.24,115q0-8.88,4.38-14.12a14.54,14.54,0,0,1,11.76-5.23q6.92,0,10.94,4.54t4,12v3.52H504q.18,6.47,3.27,9.83T516,128.9a29.69,29.69,0,0,0,11.74-2.48v5a29.44,29.44,0,0,1-5.58,1.83A31.42,31.42,0,0,1,515.82,133.76Zm-1.51-33.44a9.08,9.08,0,0,0-7.06,2.89,13.29,13.29,0,0,0-3.1,8h19.22q0-5.26-2.35-8.07A8.25,8.25,0,0,0,514.31,100.32Z"/>
    <path class="fe01ab5c-8449-4c4a-8d35-f35d31c1e5c2" d="M555.61,95.66a21.67,21.67,0,0,1,4.39.4l-.77,5.17a18.71,18.71,0,0,0-4-.51,9.8,9.8,0,0,0-7.63,3.63,13.21,13.21,0,0,0-3.17,9v19.72h-5.57V96.33h4.6l.64,6.81h.26a16.25,16.25,0,0,1,4.94-5.54A11.13,11.13,0,0,1,555.61,95.66Z"/>
  </g>
</svg>
