<svg xmlns="http://www.w3.org/2000/svg" viewBox="0 0 22 22"><defs><style>
      .afcc88fa-7cde-4ec8-a008-1cbaf5fd26be {
        fill: #4f4f63;
      }
    </style></defs><title>emoji</title><g id="b79acde1-5a9f-4b30-a2b6-4c9a164167e5" data-name="old"><path class="afcc88fa-7cde-4ec8-a008-1cbaf5fd26be" d="M11,22A11,11,0,1,1,22,11,11,11,0,0,1,11,22ZM11,2a9,9,0,1,0,9,9A9,9,0,0,0,11,2Z"></path><path class="afcc88fa-7cde-4ec8-a008-1cbaf5fd26be" d="M10.88,16a6.43,6.43,0,0,1-4.8-2.4l1.6-1.2a4.47,4.47,0,0,0,3.2,1.6,4.47,4.47,0,0,0,3.21-1.6l1.59,1.2A6.38,6.38,0,0,1,10.88,16Z"></path><path class="afcc88fa-7cde-4ec8-a008-1cbaf5fd26be" d="M7.89,9.25a1.25,1.25,0,0,1,0-2.5h0a1.25,1.25,0,1,1,0,2.5Z"></path><path class="afcc88fa-7cde-4ec8-a008-1cbaf5fd26be" d="M13.89,9.25a1.25,1.25,0,0,1,0-2.5h0a1.25,1.25,0,0,1,0,2.5Z"></path></g></svg>